<?xml version="1.0" encoding="utf-8"?>
<!-- Generator: Adobe Illustrator 24.3.0, SVG Export Plug-In . SVG Version: 6.00 Build 0)  -->
<svg version="1.1" id="Layer_1" xmlns="http://www.w3.org/2000/svg" xmlns:xlink="http://www.w3.org/1999/xlink" x="0px" y="0px"
	 viewBox="0 0 250 90" style="enable-background:new 0 0 250 90;" xml:space="preserve">
<style type="text/css">
	.st0{clip-path:url(#SVGID_1_);}
	.st1{clip-path:url(#SVGID_2_);}
</style>
<g>
	<g>
		<defs>
			<rect id="SVGID_3_" x="78.68" y="-15.96" width="98.04" height="116.26"/>
		</defs>
		<clipPath id="SVGID_1_">
			<use xlink:href="#SVGID_3_"  style="overflow:visible;"/>
		</clipPath>
		<g class="st0">
			<defs>
				<rect id="SVGID_4_" x="78.68" y="-15.96" width="98.04" height="116.26"/>
			</defs>
			<clipPath id="SVGID_2_">
				<use xlink:href="#SVGID_4_"  style="overflow:visible;"/>
			</clipPath>
			<path class="st1" d="M123.6,38.94c-0.23,0.21-0.47,0.41-0.7,0.64c-1.13,1.09-2.27,2.13-3.56,2.62c-0.28,0.11-0.58,0.17-0.87,0.15
				c-1.02-0.07-0.66-1.62-0.44-2.64c-0.23,0.14-0.36,0.23-0.5,0.29c-0.7,0.3-1.4,0.59-2.11,0.89c-0.13,0.06-0.26,0.15-0.36,0.29
				c-0.57,0.84-1.24,1.27-1.99,1.34c-0.86,0.09-1.47-0.82-1.3-2.2c0.01-0.11,0.01-0.23,0.01-0.38c-0.37,0.22-0.72,0.5-1.1,0.69
				c-0.34,0.17-0.68,0.42-1.05,0.45c-0.34,0.03-0.7-0.15-0.91-0.59c-0.43,0.71-0.95,1.29-1.5,1.69c-0.25,0.18-0.54,0.33-0.8,0.19
				c-0.36-0.2-0.56-0.88-0.6-1.52c-0.04-0.64,0.02-1.28-0.02-1.92c-1.85,1.46-3.73,2.94-5.75,3.38c-0.48,0.1-0.96,0.15-1.43,0.03
				c-0.21-0.06-0.42-0.15-0.58-0.38c-0.27-0.38-0.34-1.06-0.24-1.63c0.11-0.56,0.36-1.02,0.64-1.38c0.43-0.55,0.94-0.91,1.47-1.05
				c0.28-0.07,0.58-0.08,0.85,0.1c0.26,0.18,0.49,0.59,0.51,1.07c0.03,0.65-0.31,1.2-0.67,1.44c-0.5,0.32-1.09,0.23-1.55-0.24
				c-0.1,0.32-0.19,0.73-0.05,1c0.09,0.18,0.25,0.2,0.39,0.21c1.24,0.03,2.45-0.63,3.6-1.42c1.15-0.79,2.27-1.71,3.47-2.26
				c0.15-0.07,0.32-0.13,0.46,0c0.21,0.19,0.22,0.68,0.21,1.08c-0.03,0.69-0.05,1.39-0.07,2.08c-0.01,0.19,0,0.41,0.1,0.5
				c0.1,0.09,0.21-0.02,0.3-0.13c0.43-0.53,0.82-1.16,1.16-1.85c0.22-0.46,0.43-0.95,0.68-1.34c0.07-0.1,0.14-0.2,0.23-0.22
				c0.09-0.02,0.19,0.08,0.2,0.23c0,0.08-0.02,0.15-0.04,0.23c-0.11,0.32-0.57,1.27-0.37,1.65c0.02,0.05,0.06,0.07,0.09,0.09
				c0.26,0.18,0.56,0.16,0.81-0.03c0.85-0.6,1.7-1.18,2.52-1.86c0.68-0.56,1.37-0.78,2.11-0.5c0.62,0.24,0.83,0.79,0.83,2.22
				c0.14-0.01,0.27,0,0.4-0.05c0.21-0.07,0.41-0.17,0.61-0.26c1.11-0.48,1.95-1.36,2.47-3.26c0.54-1.99,1.31-3.82,2.02-5.66
				c0.35-0.89,0.84-1.59,1.47-1.89c0.71-0.34,1.05,0.18,0.86,1.37c-0.27,1.77-0.88,3.25-1.58,4.59c-0.64,1.2-1.44,2.16-2.06,3.39
				c-0.21,0.42-1.17,2.87-0.69,3.16c0.06,0.04,0.12,0.04,0.18,0.03c0.55-0.04,1.04-0.56,1.51-0.95c0.52-0.43,1.04-0.88,1.57-1.3
				c0.32-0.26,0.65-0.5,0.98-0.73c0.32-0.22,0.63-0.49,0.96-0.67c0.19-0.1,0.5-0.16,0.66,0.12c0.14,0.24,0.05,0.65-0.02,0.92
				c-0.14,0.54-0.31,1.05-0.46,1.58c-0.08,0.29-0.16,0.58-0.23,0.88c-0.04,0.14-0.01,0.26,0.09,0.22c0.04-0.01,0.07-0.04,0.1-0.07
				c0.29-0.28,0.59-0.56,0.86-0.89c0.34-0.4,0.6-0.93,0.91-1.37c0.19-0.27,1.11-1.7,1.26-0.73c0.03,0.19,0,0.39-0.05,0.56
				c-0.1,0.38-0.19,0.76-0.29,1.14c-0.06,0.2-0.29,1.01-0.36,1.24c0.34-0.2,0.58-0.3,0.8-0.47c0.92-0.7,1.83-1.41,2.73-2.15
				c0.16-0.13,0.28-0.43,0.38-0.7c0.18-0.52,0.36-1.15,0.56-1.8c-0.29,0-0.5,0.04-0.7,0.03c-0.21-0.01-0.42,0.03-0.63-0.02
				c-0.09-0.02-0.24-0.05-0.24-0.32c0.01-0.25,0.15-0.31,0.23-0.32c0.21-0.04,1.61-0.18,1.66-0.25c0.11-0.18,0.23-0.59,0.29-0.75
				c0.48-1.31,1.01-2.59,1.61-3.74c0.26-0.49,0.64-0.94,1.04-1.07c0.59-0.19,0.97,0.58,0.82,1.55c-0.09,0.58-0.27,1.13-0.43,1.67
				c-0.13,0.41-0.29,0.8-0.46,1.18c-0.16,0.38-0.34,0.73-0.55,1.19c0.55,0,1.05-0.01,1.54,0.01c0.22,0.01,0.56-0.13,0.55,0.43
				c-0.01,0.38-0.37,0.24-0.56,0.27c-0.67,0.06-1.38-0.12-1.98,0.24c-1.11,0.66-1.95,2.62-2.22,4.47c-0.15,1.01,0.68,0.6,0.98,0.49
				c1.57-0.57,3.05-1.99,4.51-3.08c0.24-0.18,0.49-0.36,0.74-0.47c0.44-0.18,0.63,0.15,0.48,0.87c-0.11,0.55-0.3,1.06-0.45,1.59
				c-0.07,0.27-0.14,0.54-0.27,1c0.36-0.16,3.16-2.06,4.3-2.95c0.66-0.51,1.33-0.72,2.04-0.45c0.73,0.27,0.8,1.12,0.84,2.22
				c0.01,0.2,2.23-1.09,2.49-1.24c0.14-0.09,0.29-0.29,0.43-0.26c0.22,0.04,0.49,0.14,0.61,0.38c0.09,0.19-0.02,0.65-0.04,0.91
				c0.42-0.43,0.91-0.97,1.42-1.44c0.28-0.25,0.59-0.45,0.9-0.55c0.47-0.15,0.7,0.35,0.51,1.08c-0.18,0.69-0.77,2.42-0.68,2.54
				c0.09,0.24,2.78-1.71,3.86-2.45c0.09-0.06,0.72-0.55,0.72-0.08c0,0.05,0.08,0.29-0.75,0.87c-0.46,0.32-0.92,0.63-1.38,0.93
				c-0.92,0.62-1.85,1.23-2.77,1.85c-0.04,0.03-0.08,0.05-0.12,0.06c-0.74,0.23-1.03-0.31-0.77-1.49c0.13-0.6,0.31-1.17,0.44-1.81
				c-0.72,0.66-1.42,1.36-2,2.37c-0.13,0.22-0.39,0.38-0.57,0.33c-0.28-0.07-0.47-0.4-0.32-0.98c0.08-0.31,0.25-0.85,0.35-1.17
				c-0.51,0.11-1.13,0.39-1.63,0.63c-0.41,0.2-1,0.3-1.33,0.78c-0.57,0.83-1.24,1.24-1.99,1.32c-0.9,0.09-1.33-0.75-1.26-2.54
				c-0.63,0.41-3.28,1.93-3.99,2.2c-0.46,0.17-0.64-0.2-0.5-0.95c0.13-0.66,0.32-1.28,0.52-2.04c-0.25,0.16-0.45,0.3-0.65,0.43
				c-0.81,0.51-1.61,1.04-2.42,1.55c-0.86,0.54-1.7,1.29-2.65,1.16c-0.7-0.1-0.94-0.74-0.77-1.89c0.03-0.18,0.06-0.36,0.12-0.69
				c-0.19,0.14-0.32,0.24-0.45,0.32c-1.04,0.7-2.07,1.4-3.11,2.09c-0.14,0.09-0.3,0.12-0.45,0.13c-0.44,0.02-0.55-0.22-0.42-0.95
				c0.02-0.13,0.05-0.26,0.1-0.54c-0.59,0.65-1.26,1.28-1.95,1.55c-0.67,0.26-0.98-0.41-0.78-1.51c0.06-0.31,0.14-0.62,0.21-0.92
				c0.08-0.3,0.17-0.58,0.26-0.87C123.69,38.91,123.67,38.87,123.6,38.94 M114.08,40.54c-0.56-0.85-0.57-1.14-0.05-1.74
				c0.05-0.05,0.02-0.17-0.03-0.17c-0.35,0.03-0.71,0.08-1.03,0.3c-0.43,0.29-0.72,0.88-0.72,1.74c0,0.68,0.24,0.95,0.64,0.99
				c0.4,0.04,0.78-0.06,1.19-0.76C114.14,40.81,114.14,40.64,114.08,40.54 M143,38.62c-0.19,0-0.39-0.01-0.58,0
				c-0.59,0.05-1.04,0.51-1.29,1.42c-0.22,0.8-0.03,1.56,0.39,1.57c0.53,0.02,1.05-0.38,1.37-1.1c-0.14-0.16-0.29-0.33-0.37-0.58
				C142.3,39.28,142.72,38.9,143,38.62 M120.47,36.18c1.09-1.83,2.12-3.73,2.64-6.4C122.4,30.05,121.49,32.32,120.47,36.18
				 M132.82,35.38c0.64,0.05,2.42-4.05,2.01-4.51C134.18,30.57,133.51,33.79,132.82,35.38 M99.31,39.57
				c0.41,0.49,0.79,0.52,1.16,0.23c0.12-0.09,0.26-0.46,0.24-0.62c-0.04-0.22-0.22-0.48-0.36-0.52
				C99.91,38.56,99.59,38.94,99.31,39.57 M139.11,34.68c0-0.48-0.27-0.91-0.58-0.91c-0.32-0.01-0.58,0.38-0.59,0.89
				c-0.01,0.51,0.27,1.01,0.58,1.01C138.82,35.67,139.11,35.19,139.11,34.68 M104.58,56.89h-2.9V49.7h2.88v0.68h-2.44v2.37h2.31
				v0.67h-2.31v2.78h2.45V56.89z M111.92,56.89h-0.31l-1.99-7.18h0.49l1.65,5.96l1.66-5.96h0.49L111.92,56.89z M122.01,56.89h-2.9
				V49.7H122v0.68h-2.44v2.37h2.31v0.67h-2.31v2.78h2.45V56.89z M131.29,56.89h-0.33l-3.06-5.85v5.85h-0.44V49.7h0.33l3.06,5.9v-5.9
				h0.45V56.89z M138.44,50.38v6.51h-0.44v-6.51h-1.45V49.7h3.33v0.67H138.44z M147.89,51.54l-0.45,0.17
				c-0.1-0.91-0.51-1.45-1.08-1.45c-0.53,0-0.93,0.48-0.93,1.31c0,0.67,0.27,0.93,0.66,1.13l0.95,0.47
				c0.59,0.29,0.91,0.87,0.91,1.81c0,1.24-0.6,2.02-1.48,2.02c-0.86,0-1.55-0.77-1.65-2.13l0.48-0.16c0.08,1.04,0.56,1.62,1.21,1.62
				c0.61,0,0.99-0.52,0.99-1.32c0-0.59-0.2-0.95-0.64-1.16l-0.91-0.45c-0.51-0.24-1-0.68-1-1.82c0-1.21,0.56-2,1.4-2
				C147.19,49.58,147.74,50.35,147.89,51.54 M165.6,85.81H84.27V4.02h81.33V85.81z M84.94,84.7h80V5.14h-80V84.7z"/>
		</g>
	</g>
</g>
</svg>
