<?xml version="1.0" encoding="UTF-8"?>
<svg version="1.1" viewBox="0 0 1500 1500" width="1280" height="1280" xmlns="http://www.w3.org/2000/svg">
<path transform="translate(15,21)" d="m0 0h1470l1 6v1463l-1 1h-1470l-1-31v-1436z" fill="#FFFEFE"/>
<path transform="translate(15,21)" d="m0 0h1470l1 6v1463l-1 1h-1470l-1-31v-1436zm57 46-1 3v1317l1 43h1354v-1237l1-125-1-1z" fill="#FFFEFE"/>
<path transform="translate(72,67)" d="m0 0h1354l1 2-1 124v1237h-1354l-1-43v-1319zm11 18-1 1-1 55-1 119v945l1 152 1 55h1333l1-1v-1325l-1-1z" fill="#191212"/>
<path transform="translate(714,479)" d="m0 0h7l3 3 2 6v13l-5 24-6 20-13 30-10 18-11 17-10 16-8 16-6 16-4 14-1 13 1 3 4 1 12-6 14-11 14-12 10-8 21-16 13-8 6-1 4 3 1 3v7l-12 46v3l4-2 13-14 14-21 9-12 7-6h4l1 2v13l-7 28-3 10 8-4 16-12 13-10 16-13 7-6 6-16 6-19v-3l-23-1-2-6 2-4 16-3 13-2 5-12 12-30 9-20 8-16 6-8 6-5 5-2 6 1 5 6 2 5v12l-5 23-7 20-9 20-2 6 32 1 1 1v9l-1 1-35 2-8 4-5 4-8 10-8 14-8 20-5 22v10l3 3 10-2 18-8 11-7 14-10 28-22 14-10 6-3h5l2 2v14l-9 34-2 7 16-10 31-21 19-14 14-9 8-3h13l8 4 6 7 3 12 2 15 19-9 20-11 6-4 7 1 4 2 2 3-1 13 8-7 16-16 11-7 5-2 4 1 3 3 1 9-5 21-6 22v5l16-9 54-36 5 1-1 6-7 7-18 13-44 29-10 7-6 3-9-2-3-6v-11l5-24 2-7v-4l-15 15-10 13-7 11-5 4h-5l-5-6v-8l5-20-7 1-28 12-9 5-9 10-5 5-8 6-10 4-10 1-8-4-5-7-3-13v-17l-7 3-28 16-16 9-18 8-5-2-2-4 1-12 7-29 1-2-6 3-17 11-19 12-17 11-15 9-10 4-8 1-10-3-5-7-1-3v-19l2-10-7 4-43 29-9 6-10 2-4-2-1-3v-17l-5 5-10 9-11 7-9 3-7-4-2-5v-15l5-23 3-11-8 7-9 9-8 7-14 12-14 10-17 9-11 3-9-1-5-4-2-5v-17l3-16-19 9-21 9-8 5-8 10-11 8-9 4-9 1-8-3-5-5-4-7-2-10v-10l1-7-18 10-14 7-5 1-9-3-4-5-3 1-4 6-9 10-7 7-8 5-7 1-6-5-4-10-1-5-1-14v-23l-11 8-19 14-14 10-19 11-15 7-20 6-16 1-10-3-5-4-4-8-1-5v-12l3-12 7-13 9-10 11-7 6-2h10l5 3 5 6 2 6v14l-5 10-7 6-5 2h-9l-9-5h-2l-1 10 2 6 2 1h13l15-4 21-10 14-9 19-13 14-10 13-8 16-8 4 1 3 9v49l1 4 3-1 10-14 10-17 11-22 4-5h4v7l-6 20v7l4 4 9-2 22-15 21-16 13-8 6-2h13l9 4 5 6 3 10 2 18 6-1 16-7 10-7 9-9 7-12 7-18 12-38 9-25 11-28 8-18 6-10 6-7 8-5z" fill="#191212"/>
<path transform="translate(792,828)" d="m0 0 4 1 5 8 17 33 21 41 8 15 1-97 5-1 1 1 1 118-4 1-3-2-7-14-10-19-17-33-12-22-3-6-1 95-1 1h-5l-1-1v-105z" fill="#191212"/>
<path transform="translate(652,829)" d="m0 0h47l1 2-1 8-14 1h-25l-1 39h38l1 5-1 6h-38v47h40l1 1v9l-19 1h-29z" fill="#191212"/>
<path transform="translate(1100,827)" d="m0 0h12l7 4 5 6 4 8 2 7v8l-5 1-3-8-4-9-6-5-3-1h-7l-6 4-4 7-1 4v13l3 6 7 6 16 8 8 6 4 6 3 12v13l-2 9-4 8-8 7-5 2h-12l-8-5-6-7-4-8-2-9 1-6 1-2h4l5 16 6 8 5 2h11l5-2 2-5 3-8v-13l-4-8-11-7-15-8-7-7-4-10-1-11 2-13 4-9 7-8z" fill="#191212"/>
<path transform="translate(361,829)" d="m0 0h48l1 2-1 8-40 1-1 39 39 1v10h-39l1 46 40 1 1 3-1 7h-48z" fill="#191212"/>
<path transform="translate(495,828)" d="m0 0 6 1 3 7 14 51 11 39 3-8 16-58 9-31 1-1h5l1 3-16 59-16 57-5 1-4-13-20-73-8-30-1-3z" fill="#191212"/>
<path transform="translate(942,829)" d="m0 0h56v9l-1 1-23 2-1 107h-6l-1-108h-15l-9-1z" fill="#191212"/>
<path transform="translate(561,644)" d="m0 0h6l1 2-6 9v7l3 8 3 5v7l-5 7-8 5h-10l-6-5-1-3v-18l3-10 9-10z" fill="#FFFEFE"/>
<path transform="translate(1042,643)" d="m0 0 6 1-1 4-4 4-1 3v8l4 9 1 1-1 7-9 10-7 3h-7l-4-4-2-9 1-11 4-12 6-8 5-4z" fill="#FFFEFE"/>
<path transform="translate(717,496)" d="m0 0h1l-1 8-4 17-9 25-11 24-13 25-4 4 1-7 12-41 9-24 7-15 6-10z" fill="#FFFEFE"/>
<path transform="translate(910,515)" d="m0 0 5 1-2 13-7 21-12 25-7 10-3 3h-3l3-9 13-40 7-17 4-6z" fill="#FFFEFE"/>
<path transform="translate(973,563)" d="m0 0h5l5 6 2 6-1 11-4 6-2 2h-5l-5-5-3-10 2-10 4-5z" fill="#191212"/>
<path transform="translate(334,644)" d="m0 0 7 1 3 4v10l-4 5-4 2h-6l-6-4-1-1v-6l6-8z" fill="#FFFEFE"/>
</svg>
